Coordinates
version=1
nRows=65
nColumns=12
inDegrees=yes

Units are S.I. units (second, meters, Newtons, ...)
Angles are in degrees

endheader
time	SC_y	SC_z	SC_x	AC_y	AC_z	AC_x	GH_y	GH_z	GH_yy	EL_x	PS_y
       0.0              -29.91          5.808          21.08          43.03          8.279          18.05         -41.35          7.456         -124.9          95.55          126.3
   0.03852              -29.92          5.806          21.08          43.03          8.278          18.05         -41.35          7.454         -124.9          95.55          126.3
   0.07705              -29.92          5.805          21.09          43.03          8.277          18.05         -41.35          7.451         -124.8          95.55          126.3
    0.1156              -29.93          5.804           21.1          43.03          8.276          18.05         -41.36          7.449         -124.8          95.55          126.3
    0.1541              -29.93          5.803          21.11          43.03          8.275          18.05         -41.36          7.446         -124.8          95.55          126.3
    0.1926              -29.94          5.801          21.12          43.03          8.274          18.05         -41.37          7.444         -124.7          95.55          126.3
    0.2311              -29.94            5.8          21.13          43.03          8.273          18.05         -41.37          7.441         -124.7          95.55          126.3
    0.2697              -29.95          5.798          21.14          43.03          8.271          18.05         -41.38          7.438         -124.6          95.55          126.3
    0.3082              -29.95          5.796          21.15          43.03           8.27          18.05         -41.38          7.434         -124.6          95.55          126.3
    0.3467              -29.96          5.794          21.16          43.03          8.268          18.05         -41.39          7.431         -124.5          95.55          126.3
    0.3852              -29.97          5.792          21.18          43.04          8.267          18.05         -41.39          7.427         -124.5          95.55          126.3
    0.4238              -29.98           5.79          21.19          43.04          8.265          18.05          -41.4          7.423         -124.4          95.55          126.3
    0.4623              -29.98          5.788          21.21          43.04          8.263          18.05         -41.41          7.418         -124.3          95.55          126.3
    0.5008              -29.99          5.785          21.22          43.04          8.261          18.05         -41.42          7.413         -124.3          95.55          126.3
    0.5393               -30.0          5.783          21.24          43.04          8.259          18.05         -41.42          7.408         -124.2          95.55          126.2
    0.5778              -30.02           5.78          21.26          43.04          8.256          18.05         -41.43          7.402         -124.1          95.55          126.2
    0.6164              -30.03          5.777          21.28          43.04          8.254          18.05         -41.44          7.396         -124.0          95.55          126.2
    0.6549              -30.04          5.773          21.31          43.04          8.251          18.05         -41.45          7.389         -123.9          95.55          126.2
    0.6934              -30.05          5.769          21.33          43.05          8.248          18.05         -41.47          7.382         -123.8          95.55          126.2
    0.7319              -30.07          5.765          21.36          43.05          8.244          18.05         -41.48          7.374         -123.7          95.55          126.2
    0.7705              -30.09           5.76          21.39          43.05          8.241          18.05         -41.49          7.365         -123.6          95.55          126.2
     0.809              -30.11          5.755          21.42          43.05          8.237          18.05         -41.51          7.356         -123.4          95.55          126.2
    0.8475              -30.13           5.75          21.46          43.05          8.232          18.05         -41.53          7.345         -123.3          95.55          126.2
     0.886              -30.15          5.744           21.5          43.06          8.227          18.05         -41.54          7.333         -123.1          95.55          126.1
    0.9246              -30.18          5.737          21.55          43.06          8.221          18.04         -41.57           7.32         -122.9          95.55          126.1
    0.9631               -30.2          5.729           21.6          43.06          8.215          18.04         -41.59          7.305         -122.7          95.55          126.1
     1.002              -30.24           5.72          21.66          43.07          8.208          18.04         -41.62          7.288         -122.4          95.55          126.1
      1.04              -30.27          5.711          21.72          43.07            8.2          18.04         -41.65           7.27         -122.2          95.55          126.1
     1.079              -30.31            5.7           21.8          43.07          8.191          18.04         -41.68          7.249         -121.9          95.55          126.0
     1.117              -30.36          5.687          21.88          43.08          8.181          18.04         -41.72          7.225         -121.5          95.55          126.0
     1.156              -30.41          5.673          21.97          43.09           8.17          18.04         -41.76          7.198         -121.1          95.55          126.0
     1.194              -30.47          5.657          22.08          43.09          8.157          18.03         -41.81          7.167         -120.6          95.55          125.9
     1.233              -30.54          5.638          22.21           43.1          8.141          18.03         -41.87          7.131         -120.1          95.55          125.9
     1.271              -30.62          5.616          22.35          43.11          8.124          18.03         -41.94          7.089         -119.5          95.55          125.8
      1.31              -30.72          5.591          22.53          43.12          8.103          18.02         -42.02           7.04         -118.8          95.54          125.7
     1.348              -30.83          5.561          22.73          43.13          8.078          18.02         -42.11          6.982         -117.9          95.54          125.7
     1.387              -30.96          5.525          22.97          43.15          8.049          18.01         -42.22          6.913         -116.9          95.54          125.6
     1.425              -31.12          5.482          23.25          43.17          8.014          18.01         -42.35          6.831         -115.7          95.54          125.4
     1.464              -31.31           5.43           23.6          43.19          7.972           18.0         -42.51          6.731         -114.2          95.54          125.3
     1.502              -31.55          5.367          24.02          43.22          7.921          17.99         -42.71           6.61         -112.4          95.54          125.1
     1.541              -31.84          5.288          24.55          43.25          7.857          17.98         -42.95           6.46         -110.2          95.53          124.9
     1.579               -32.2          5.191           25.2          43.29          7.778          17.96         -43.25          6.273         -107.5          95.53          124.7
     1.618              -32.66          5.068          26.02          43.35          7.678          17.95         -43.63          6.037         -104.0          95.52          124.4
     1.656              -33.24          4.911          27.07          43.41          7.551          17.92         -44.12          5.737         -99.57          95.52          123.9
     1.695              -33.98          4.711           28.4           43.5          7.389          17.89         -44.73          5.353         -93.91          95.51          123.4
     1.734              -34.93          4.455          30.12          43.61           7.18          17.85         -45.53          4.861         -86.66           95.5          122.7
     1.772              -36.15          4.127          32.31          43.75          6.914          17.81         -46.54          4.232         -77.39          95.48          121.9
     1.811              -37.68          3.715          35.07          43.93          6.579          17.74         -47.82          3.441         -65.73          95.46          120.8
     1.849              -39.55          3.212          38.43          44.14          6.171          17.67         -49.37          2.478         -51.53          95.44          119.4
     1.888              -41.71           2.63          42.32          44.39          5.698          17.58         -51.17          1.361         -35.06          95.42          117.9
     1.926              -44.05          1.999          46.53          44.66          5.186          17.49         -53.12         0.1513         -17.24          95.39          116.2
     1.965              -46.39          1.369          50.75          44.93          4.674           17.4         -55.07         -1.058         0.5899          95.36          114.6
     2.003              -48.55         0.7864          54.64          45.18          4.201          17.31         -56.87         -2.175          17.05          95.34          113.0
     2.042              -50.42          0.284           58.0           45.4          3.793          17.24         -58.42         -3.139          31.26          95.32          111.7
      2.08              -51.95        -0.1283          60.76          45.57          3.459          17.17          -59.7         -3.929          42.91           95.3          110.6
     2.119              -53.17        -0.4562          62.95          45.71          3.192          17.13         -60.71         -4.558          52.18          95.28          109.7
     2.157              -54.12        -0.7128          64.66          45.82          2.984          17.09          -61.5         -5.051          59.44          95.27          109.0
     2.196              -54.86        -0.9129           66.0          45.91          2.821          17.06         -62.12         -5.434          65.09          95.27          108.5
     2.234              -55.44         -1.069          67.05          45.98          2.695          17.04          -62.6         -5.734          69.51          95.26          108.1
     2.273               -55.9         -1.192          67.87          46.03          2.595          17.02         -62.98          -5.97          72.99          95.25          107.8
     2.311              -56.26          -1.29          68.52          46.07          2.515           17.0         -63.29         -6.157          75.75          95.25          107.5
      2.35              -56.55         -1.368          69.04           46.1          2.452          16.99         -63.53         -6.307          77.96          95.25          107.3
     2.388              -56.79         -1.431          69.47          46.13            2.4          16.98         -63.72         -6.429          79.75          95.24          107.1
     2.427              -56.98         -1.483          69.81          46.15          2.358          16.97         -63.88         -6.528          81.22          95.24          107.0
     2.465              -57.14         -1.526           70.1          46.17          2.323          16.97         -64.02         -6.611          82.43          95.24          106.9
